<svg id="ewre2VyZWxu1" xmlns="http://www.w3.org/2000/svg" xmlns:xlink="http://www.w3.org/1999/xlink" viewBox="0 0 975.61 1031.67" shape-rendering="geometricPrecision" text-rendering="geometricPrecision"><g><polygon points="255.29,283.26 255.29,610.26 749.29,610.26 749.79,269.76 255.29,269.26 255.29,283.26" fill="#e1e6fb"/><polygon points="218.29,312.26 218.29,639.26 712.29,639.26 712.79,298.76 218.29,298.26 218.29,312.26" fill="#eaedfb"/><rect width="15" height="15" rx="7.5" ry="7.5" transform="translate(232.79 324.76)" fill="#bac5f4"/><rect width="15" height="15" rx="7.5" ry="7.5" transform="translate(255.79 324.76)" fill="#bac5f4"/><rect width="15" height="15" rx="7.5" ry="7.5" transform="translate(278.79 324.76)" fill="#bac5f4"/><g opacity="0.5"><g><rect width="2" height="102" rx="0" ry="0" transform="translate(244.79 373.76)" fill="#fff"/><rect width="2" height="102" rx="0" ry="0" transform="translate(253.79 373.76)" fill="#fff"/><rect width="2" height="102" rx="0" ry="0" transform="translate(261.79 373.76)" fill="#fff"/><rect width="2" height="102" rx="0" ry="0" transform="translate(270.79 373.76)" fill="#fff"/><rect width="2" height="102" rx="0" ry="0" transform="translate(278.79 373.76)" fill="#fff"/><rect width="2" height="102" rx="0" ry="0" transform="translate(287.79 373.76)" fill="#fff"/><rect width="2" height="102" rx="0" ry="0" transform="translate(295.79 373.76)" fill="#fff"/><rect width="2" height="102" rx="0" ry="0" transform="translate(303.79 373.76)" fill="#fff"/><rect width="2" height="102" rx="0" ry="0" transform="translate(311.79 373.76)" fill="#fff"/><rect width="2" height="102" rx="0" ry="0" transform="translate(320.79 373.76)" fill="#fff"/><rect width="2" height="102" rx="0" ry="0" transform="translate(328.79 373.76)" fill="#fff"/><rect width="2" height="102" rx="0" ry="0" transform="translate(337.79 373.76)" fill="#fff"/><rect width="2" height="102" rx="0" ry="0" transform="translate(345.79 373.76)" fill="#fff"/><rect width="103" height="2" rx="0" ry="0" transform="translate(244.79 373.76)" fill="#fff"/><rect width="103" height="2" rx="0" ry="0" transform="translate(244.79 383.76)" fill="#fff"/><rect width="103" height="2" rx="0" ry="0" transform="translate(244.79 393.76)" fill="#fff"/><rect width="103" height="2" rx="0" ry="0" transform="translate(244.79 403.76)" fill="#fff"/><rect width="103" height="2" rx="0" ry="0" transform="translate(244.79 413.76)" fill="#fff"/><rect width="103" height="2" rx="0" ry="0" transform="translate(244.79 423.76)" fill="#fff"/><rect width="103" height="2" rx="0" ry="0" transform="translate(244.79 433.76)" fill="#fff"/><rect width="103" height="2" rx="0" ry="0" transform="translate(244.79 443.76)" fill="#fff"/><rect width="103" height="2" rx="0" ry="0" transform="translate(244.79 453.76)" fill="#fff"/><rect width="103" height="2" rx="0" ry="0" transform="translate(244.79 463.76)" fill="#fff"/><rect width="103" height="2" rx="0" ry="0" transform="translate(244.79 473.76)" fill="#fff"/></g><g><rect width="2" height="102" rx="0" ry="0" transform="translate(370.79 501.76)" fill="#fff"/><rect width="2" height="102" rx="0" ry="0" transform="translate(379.79 501.76)" fill="#fff"/><rect width="2" height="102" rx="0" ry="0" transform="translate(387.79 501.76)" fill="#fff"/><rect width="2" height="102" rx="0" ry="0" transform="translate(396.79 501.76)" fill="#fff"/><rect width="2" height="102" rx="0" ry="0" transform="translate(404.79 501.76)" fill="#fff"/><rect width="2" height="102" rx="0" ry="0" transform="translate(413.79 501.76)" fill="#fff"/><rect width="2" height="102" rx="0" ry="0" transform="translate(421.79 501.76)" fill="#fff"/><rect width="2" height="102" rx="0" ry="0" transform="translate(429.79 501.76)" fill="#fff"/><rect width="2" height="102" rx="0" ry="0" transform="translate(437.79 501.76)" fill="#fff"/><rect width="2" height="102" rx="0" ry="0" transform="translate(446.79 501.76)" fill="#fff"/><rect width="2" height="102" rx="0" ry="0" transform="translate(454.79 501.76)" fill="#fff"/><rect width="2" height="102" rx="0" ry="0" transform="translate(463.79 501.76)" fill="#fff"/><rect width="2" height="102" rx="0" ry="0" transform="translate(471.79 501.76)" fill="#fff"/><rect width="103" height="2" rx="0" ry="0" transform="translate(370.79 501.76)" fill="#fff"/><rect width="103" height="2" rx="0" ry="0" transform="translate(370.79 511.76)" fill="#fff"/><rect width="103" height="2" rx="0" ry="0" transform="translate(370.79 521.76)" fill="#fff"/><rect width="103" height="2" rx="0" ry="0" transform="translate(370.79 531.76)" fill="#fff"/><rect width="103" height="2" rx="0" ry="0" transform="translate(370.79 541.76)" fill="#fff"/><rect width="103" height="2" rx="0" ry="0" transform="translate(370.79 551.76)" fill="#fff"/><rect width="103" height="2" rx="0" ry="0" transform="translate(370.79 561.76)" fill="#fff"/><rect width="103" height="2" rx="0" ry="0" transform="translate(370.79 571.76)" fill="#fff"/><rect width="103" height="2" rx="0" ry="0" transform="translate(370.79 581.76)" fill="#fff"/><rect width="103" height="2" rx="0" ry="0" transform="translate(370.79 591.76)" fill="#fff"/><rect width="103" height="2" rx="0" ry="0" transform="translate(370.79 601.76)" fill="#fff"/></g><g><rect width="2" height="102" rx="0" ry="0" transform="translate(483.79 384.76)" fill="#fff"/><rect width="2" height="102" rx="0" ry="0" transform="translate(492.79 384.76)" fill="#fff"/><rect width="2" height="102" rx="0" ry="0" transform="translate(500.79 384.76)" fill="#fff"/><rect width="2" height="102" rx="0" ry="0" transform="translate(509.79 384.76)" fill="#fff"/><rect width="2" height="102" rx="0" ry="0" transform="translate(517.79 384.76)" fill="#fff"/><rect width="2" height="102" rx="0" ry="0" transform="translate(526.79 384.76)" fill="#fff"/><rect width="2" height="102" rx="0" ry="0" transform="translate(534.79 384.76)" fill="#fff"/><rect width="2" height="102" rx="0" ry="0" transform="translate(542.79 384.76)" fill="#fff"/><rect width="2" height="102" rx="0" ry="0" transform="translate(550.79 384.76)" fill="#fff"/><rect width="2" height="102" rx="0" ry="0" transform="translate(559.79 384.76)" fill="#fff"/><rect width="2" height="102" rx="0" ry="0" transform="translate(567.79 384.76)" fill="#fff"/><rect width="2" height="102" rx="0" ry="0" transform="translate(576.79 384.76)" fill="#fff"/><rect width="2" height="102" rx="0" ry="0" transform="translate(584.79 384.76)" fill="#fff"/><rect width="103" height="2" rx="0" ry="0" transform="translate(483.79 384.76)" fill="#fff"/><rect width="103" height="2" rx="0" ry="0" transform="translate(483.79 394.76)" fill="#fff"/><rect width="103" height="2" rx="0" ry="0" transform="translate(483.79 404.76)" fill="#fff"/><rect width="103" height="2" rx="0" ry="0" transform="translate(483.79 414.76)" fill="#fff"/><rect width="103" height="2" rx="0" ry="0" transform="translate(483.79 424.76)" fill="#fff"/><rect width="103" height="2" rx="0" ry="0" transform="translate(483.79 434.76)" fill="#fff"/><rect width="103" height="2" rx="0" ry="0" transform="translate(483.79 444.76)" fill="#fff"/><rect width="103" height="2" rx="0" ry="0" transform="translate(483.79 454.76)" fill="#fff"/><rect width="103" height="2" rx="0" ry="0" transform="translate(483.79 464.76)" fill="#fff"/><rect width="103" height="2" rx="0" ry="0" transform="translate(483.79 474.76)" fill="#fff"/><rect width="103" height="2" rx="0" ry="0" transform="translate(483.79 484.76)" fill="#fff"/></g></g><rect width="147" height="102" rx="0" ry="0" transform="translate(293.79 405.76)" fill="#bac5f4"/><rect width="147" height="102" rx="0" ry="0" transform="translate(308.79 418.76)" fill="#e1e6fb"/><rect width="84" height="2" rx="0" ry="0" transform="translate(338.79 432.76)" fill="#fff"/><rect width="69" height="2" rx="0" ry="0" transform="translate(338.79 437.76)" fill="#fff"/><rect width="91" height="2" rx="0" ry="0" transform="translate(338.79 441.76)" fill="#fff"/><rect width="40" height="2" rx="0" ry="0" transform="translate(338.79 454.76)" fill="#fff"/><rect width="61" height="2" rx="0" ry="0" transform="translate(338.79 459.76)" fill="#fff"/><rect width="57" height="2" rx="0" ry="0" transform="translate(338.79 463.76)" fill="#fff"/><rect width="40" height="2" rx="0" ry="0" transform="translate(338.79 477.76)" fill="#fff"/><rect width="61" height="2" rx="0" ry="0" transform="translate(338.79 482.76)" fill="#fff"/><rect width="57" height="2" rx="0" ry="0" transform="translate(338.79 486.76)" fill="#fff"/><circle r="6.5" transform="translate(326.29 438.26)" fill="#fff"/><circle r="6.5" transform="translate(326.29 459.26)" fill="#fff"/><circle r="6.5" transform="translate(327.29 483.26)" fill="#fff"/><rect width="73" height="2" rx="0" ry="0" transform="translate(608.79 418.76)" fill="#fff"/><rect width="73" height="2" rx="0" ry="0" transform="translate(608.79 429.76)" fill="#fff"/><rect width="73" height="2" rx="0" ry="0" transform="translate(608.79 440.76)" fill="#fff"/><rect width="73" height="2" rx="0" ry="0" transform="translate(608.79 451.76)" fill="#fff"/><rect width="73" height="2" rx="0" ry="0" transform="translate(608.79 462.76)" fill="#fff"/><rect width="73" height="2" rx="0" ry="0" transform="translate(608.79 473.76)" fill="#fff"/><rect width="73" height="2" rx="0" ry="0" transform="translate(608.79 484.76)" fill="#fff"/><rect width="73" height="2" rx="0" ry="0" transform="translate(608.79 495.76)" fill="#fff"/><rect width="73" height="2" rx="0" ry="0" transform="translate(608.79 506.76)" fill="#fff"/><rect width="458" height="2" rx="0" ry="0" transform="translate(229.79 347.76)" fill="#fff"/><circle r="22.5" transform="translate(645.29 384.26)" fill="#fff"/></g><g><path d="M746.54,330v-20c0,0,2-5-7-9s-25-20-24-47s26-51,54-49s48,24,49,54-26,42-26,42-5,1-5,6v23Z" transform="translate(-70.75-38.24)" fill="#bac5f4"/><rect width="2" height="20" rx="0" ry="0" transform="matrix(.537888-.843016 0.843016 0.537888 630.838624 181.234335)" fill="#bac5f4"/><rect width="2" height="20" rx="0" ry="0" transform="matrix(.978075-.208253 0.208253 0.978075 675.726806 146.2401)" fill="#bac5f4"/><rect width="2" height="20" rx="0" ry="0" transform="matrix(.846379 0.532581-.532581 0.846379 733.257118 152.779259)" fill="#bac5f4"/><rect width="2" height="20" rx="0" ry="0" transform="matrix(.309515 0.950895-.950895 0.309515 767.92059 196.723119)" fill="#bac5f4"/><rect width="2" height="20" rx="0" ry="0" transform="matrix(-.529031 0.848603-.848603-.529031 761.840886 255.260023)" fill="#bac5f4"/><rect width="2" height="20" rx="0" ry="0" transform="matrix(-.8461-.533024 0.533024-.8461 658.304135 283.75023)" fill="#bac5f4"/><rect width="2" height="20" rx="0" ry="0" transform="matrix(-.227161-.973857 0.973857-.227161 624.215278 239.994824)" fill="#bac5f4"/><rect width="49" height="7" rx="3.5" ry="3.5" transform="translate(671.79 291.76)" fill="#bac5f4"/><rect width="47" height="7" rx="3.5" ry="3.5" transform="translate(672.79 304.76)" fill="#bac5f4"/><rect width="47" height="6" rx="3" ry="3" transform="translate(672.79 298.76)" fill="#fff"/><path d="M748.54,350h36.74c0,0-.74,12-17.74,12s-16-7-19-12Z" transform="translate(-70.75-38.24)" fill="#fff"/></g><g><path d="M781.07,475h117.57c1.048586-.000496,2.047863.445153,2.74817,1.225603s1.035498,1.82199.92183,2.864397l-8.19,74.62c-.208547,1.87045-1.787963,3.28633-3.67,3.29h-117.57c-1.048586.000496-2.047863-.445153-2.74817-1.225603s-1.035498-1.82199-.92183-2.864397l8.19-74.62c.204204-1.872683,1.786217-3.29089,3.67-3.29Z" transform="translate(-70.75-38.24)" fill="#e1e6fb"/><path d="M773.07,475h117.57c1.048586-.000496,2.047863.445153,2.74817,1.225603s1.035498,1.82199.92183,2.864397l-8.19,74.62c-.208547,1.87045-1.787963,3.28633-3.67,3.29h-117.57c-1.048586.000496-2.047863-.445153-2.74817-1.225603s-1.035498-1.82199-.92183-2.864397l8.19-74.62c.204204-1.872683,1.786217-3.29089,3.67-3.29Z" transform="translate(-70.75-38.24)" fill="#fff"/><polygon points="700.79,437.09 749.01,481.76 821.43,437.09 700.79,437.09" fill="#bac5f4"/></g></svg>
